<svg xmlns="http://www.w3.org/2000/svg" xmlns:xlink="http://www.w3.org/1999/xlink" viewBox="0 0 1920 1089.23"><defs><style>.cls-1{fill:#fff;}.cls-2{fill:#1e1e1e;}.cls-3{fill:#191919;}.cls-4{fill:#282828;}.cls-5,.cls-6,.cls-7{fill:#ffff89;}.cls-5{opacity:0.32;}.cls-6{opacity:0.14;}.cls-7{opacity:0.39;}.cls-8{fill:#323232;}</style><symbol id="Small_White_Star" data-name="Small White Star" viewBox="0 0 4 4"><circle class="cls-1" cx="2" cy="2" r="2"/></symbol></defs><title>Background</title><g id="Layer_2" data-name="Layer 2"><g id="Layer_7" data-name="Layer 7"><rect class="cls-2" y="3.23" width="1920" height="1080"/><use width="4" height="4" transform="translate(313.5 270.73)" xlink:href="#Small_White_Star"/><use width="4" height="4" transform="translate(196.06 462.36) scale(0.9 0.95)" xlink:href="#Small_White_Star"/><use width="4" height="4" transform="translate(298.85 371.42) scale(0.9 0.95)" xlink:href="#Small_White_Star"/><use width="4" height="4" transform="translate(496.99 228.6) scale(0.9 0.95)" xlink:href="#Small_White_Star"/><use width="4" height="4" transform="translate(615.72 107.94) scale(0.9 0.95)" xlink:href="#Small_White_Star"/><use width="4" height="4" transform="translate(545.7 44.48) scale(0.9 0.95)" xlink:href="#Small_White_Star"/><use width="4" height="4" transform="translate(428.88 23.32) scale(0.9 0.95)" xlink:href="#Small_White_Star"/><use width="4" height="4" transform="translate(359.74 129.48) scale(0.9 0.95)" xlink:href="#Small_White_Star"/><use width="4" height="4" transform="translate(682.57 214.77) scale(0.9 0.95)" xlink:href="#Small_White_Star"/><use width="4" height="4" transform="translate(604.74 228.31) scale(0.9 0.95)" xlink:href="#Small_White_Star"/><use width="4" height="4" transform="translate(453.33 305.66) scale(0.9 0.95)" xlink:href="#Small_White_Star"/><use width="4" height="4" transform="translate(414.57 303.96) scale(0.9 0.95)" xlink:href="#Small_White_Star"/><use width="4" height="4" transform="translate(339.9 299.59) scale(0.9 0.95)" xlink:href="#Small_White_Star"/><use width="4" height="4" transform="translate(362.14 322.12) scale(0.9 0.95)" xlink:href="#Small_White_Star"/><use width="4" height="4" transform="translate(488.74 191.64) scale(0.9 0.95)" xlink:href="#Small_White_Star"/><use width="4" height="4" transform="translate(518.11 152.07) scale(0.9 0.95)" xlink:href="#Small_White_Star"/><use width="4" height="4" transform="translate(550.26 161.71) scale(0.9 0.95)" xlink:href="#Small_White_Star"/><use width="4" height="4" transform="translate(630.02 89.79) scale(0.9 0.95)" xlink:href="#Small_White_Star"/><use width="4" height="4" transform="translate(665.74 118.68) scale(0.9 0.95)" xlink:href="#Small_White_Star"/><use width="4" height="4" transform="translate(730.94 290.62) scale(0.9 0.95)" xlink:href="#Small_White_Star"/><use width="4" height="4" transform="translate(798.49 324.34) scale(0.9 0.95)" xlink:href="#Small_White_Star"/><use width="4" height="4" transform="translate(279.37 375.46) scale(0.9 0.95)" xlink:href="#Small_White_Star"/><use width="4" height="4" transform="translate(158.67 469.02) scale(0.9 0.95)" xlink:href="#Small_White_Star"/><use width="4" height="4" transform="translate(326.01 454.5) scale(0.9 0.95)" xlink:href="#Small_White_Star"/><use width="4" height="4" transform="translate(523.27 142.78) scale(0.9 0.95)" xlink:href="#Small_White_Star"/><use width="4" height="4" transform="translate(447.73 3.23) scale(0.9 0.95)" xlink:href="#Small_White_Star"/><use width="4" height="4" transform="translate(288.93 91.34) scale(0.9 0.95)" xlink:href="#Small_White_Star"/><use width="4" height="4" transform="translate(288.94 109.82) scale(0.9 0.95)" xlink:href="#Small_White_Star"/><use width="4" height="4" transform="translate(264.45 145.56) scale(0.9 0.95)" xlink:href="#Small_White_Star"/><use width="4" height="4" transform="translate(474.79 221.82) scale(0.9 0.95)" xlink:href="#Small_White_Star"/><use width="4" height="4" transform="translate(497.89 267.49) scale(0.9 0.95)" xlink:href="#Small_White_Star"/><use width="4" height="4" transform="translate(757.43 325.9) scale(0.9 0.95)" xlink:href="#Small_White_Star"/><use width="4" height="4" transform="translate(929.15 231.14) scale(0.9 0.95)" xlink:href="#Small_White_Star"/><use width="4" height="4" transform="translate(947.96 201.88) scale(0.9 0.95)" xlink:href="#Small_White_Star"/><use width="4" height="4" transform="translate(1101.64 211.83) scale(0.9 0.95)" xlink:href="#Small_White_Star"/><use width="4" height="4" transform="translate(910.16 228.73) scale(0.9 0.95)" xlink:href="#Small_White_Star"/><use width="4" height="4" transform="translate(576.81 432.15) scale(0.9 0.95)" xlink:href="#Small_White_Star"/><use width="4" height="4" transform="translate(510.16 503.75) scale(0.9 0.95)" xlink:href="#Small_White_Star"/><use width="4" height="4" transform="translate(477.2 508.98) scale(0.9 0.95)" xlink:href="#Small_White_Star"/><use width="4" height="4" transform="translate(364.22 511.75) scale(0.9 0.95)" xlink:href="#Small_White_Star"/><use width="4" height="4" transform="translate(385.39 477.56) scale(0.9 0.95)" xlink:href="#Small_White_Star"/><use width="4" height="4" transform="translate(533.84 333.85) scale(0.9 0.95)" xlink:href="#Small_White_Star"/><use width="4" height="4" transform="translate(660.46 308.97) scale(0.9 0.95)" xlink:href="#Small_White_Star"/><use width="4" height="4" transform="translate(785.33 459.82) scale(0.9 0.95)" xlink:href="#Small_White_Star"/><use width="4" height="4" transform="translate(910.18 460.55) scale(0.9 0.95)" xlink:href="#Small_White_Star"/><use width="4" height="4" transform="translate(932.99 406.42) scale(0.9 0.95)" xlink:href="#Small_White_Star"/><use width="4" height="4" transform="translate(911.76 212.02) scale(0.9 0.95)" xlink:href="#Small_White_Star"/><use width="4" height="4" transform="translate(867.03 209.07) scale(0.9 0.95)" xlink:href="#Small_White_Star"/><use width="4" height="4" transform="translate(796.42 245.17) scale(0.9 0.95)" xlink:href="#Small_White_Star"/><use width="4" height="4" transform="translate(766.91 243.75) scale(0.9 0.95)" xlink:href="#Small_White_Star"/><use width="4" height="4" transform="translate(875.84 138.89) scale(0.9 0.95)" xlink:href="#Small_White_Star"/><use width="4" height="4" transform="translate(1009.31 162.91) scale(0.9 0.95)" xlink:href="#Small_White_Star"/><use width="4" height="4" transform="translate(1019.58 147.34) scale(0.9 0.95)" xlink:href="#Small_White_Star"/><use width="4" height="4" transform="translate(948.92 165.02) scale(0.9 0.95)" xlink:href="#Small_White_Star"/><use width="4" height="4" transform="translate(658.07 381.08) scale(0.9 0.95)" xlink:href="#Small_White_Star"/><use width="4" height="4" transform="translate(392.57 529.9) scale(0.9 0.95)" xlink:href="#Small_White_Star"/><use width="4" height="4" transform="translate(424.87 583.6) scale(0.9 0.95)" xlink:href="#Small_White_Star"/><use width="4" height="4" transform="translate(749.69 627.63) scale(0.9 0.95)" xlink:href="#Small_White_Star"/><use width="4" height="4" transform="translate(793.67 590.84) scale(0.9 0.95)" xlink:href="#Small_White_Star"/><use width="4" height="4" transform="translate(1191.9 257.85) scale(0.9 0.95)" xlink:href="#Small_White_Star"/><use width="4" height="4" transform="translate(1525.45 119.28) scale(0.9 0.95)" xlink:href="#Small_White_Star"/><use width="4" height="4" transform="translate(1558.18 179.87) scale(0.9 0.95)" xlink:href="#Small_White_Star"/><use width="4" height="4" transform="translate(1712.34 300.65) scale(0.9 0.95)" xlink:href="#Small_White_Star"/><use width="4" height="4" transform="translate(1771.6 327.1) scale(0.9 0.95)" xlink:href="#Small_White_Star"/><use width="4" height="4" transform="translate(1242.26 464.44) scale(0.9 0.95)" xlink:href="#Small_White_Star"/><use width="4" height="4" transform="translate(1169.82 597.48) scale(0.9 0.95)" xlink:href="#Small_White_Star"/><use width="4" height="4" transform="translate(959.61 839.02) scale(0.9 0.95)" xlink:href="#Small_White_Star"/><use width="4" height="4" transform="translate(782.03 926.36) scale(0.9 0.95)" xlink:href="#Small_White_Star"/><use width="4" height="4" transform="translate(790.22 852.55) scale(0.9 0.95)" xlink:href="#Small_White_Star"/><use width="4" height="4" transform="translate(899.64 724.33) scale(0.9 0.95)" xlink:href="#Small_White_Star"/><use width="4" height="4" transform="translate(1032.11 673.87) scale(0.9 0.95)" xlink:href="#Small_White_Star"/><use width="4" height="4" transform="translate(1027.26 586.57) scale(0.9 0.95)" xlink:href="#Small_White_Star"/><use width="4" height="4" transform="translate(861.76 583.11) scale(0.9 0.95)" xlink:href="#Small_White_Star"/><use width="4" height="4" transform="translate(776.32 570.99) scale(0.9 0.95)" xlink:href="#Small_White_Star"/><use width="4" height="4" transform="translate(714.03 560.26) scale(0.9 0.95)" xlink:href="#Small_White_Star"/><use width="4" height="4" transform="translate(640.22 543.75) scale(0.9 0.95)" xlink:href="#Small_White_Star"/><use width="4" height="4" transform="translate(544.6 611.95) scale(0.9 0.95)" xlink:href="#Small_White_Star"/><use width="4" height="4" transform="translate(415.49 669.03) scale(0.9 0.95)" xlink:href="#Small_White_Star"/><use width="4" height="4" transform="translate(343.53 687.87) scale(0.9 0.95)" xlink:href="#Small_White_Star"/><use width="4" height="4" transform="translate(295.12 682.45) scale(0.9 0.95)" xlink:href="#Small_White_Star"/><use width="4" height="4" transform="translate(572.14 547.61) scale(0.9 0.95)" xlink:href="#Small_White_Star"/><use width="4" height="4" transform="translate(748.78 426.96) scale(0.9 0.95)" xlink:href="#Small_White_Star"/><use width="4" height="4" transform="translate(793.03 435.54) scale(0.9 0.95)" xlink:href="#Small_White_Star"/><use width="4" height="4" transform="translate(988.36 398.69) scale(0.9 0.95)" xlink:href="#Small_White_Star"/><use width="4" height="4" transform="translate(1093.41 327.02) scale(0.9 0.95)" xlink:href="#Small_White_Star"/><use width="4" height="4" transform="translate(1199 271.47) scale(0.9 0.95)" xlink:href="#Small_White_Star"/><use width="4" height="4" transform="translate(1039.73 203.49) scale(0.9 0.95)" xlink:href="#Small_White_Star"/><use width="4" height="4" transform="translate(991.5 193.39) scale(0.9 0.95)" xlink:href="#Small_White_Star"/><use width="4" height="4" transform="translate(962.88 159.05) scale(0.9 0.95)" xlink:href="#Small_White_Star"/><use width="4" height="4" transform="translate(937.35 130.27) scale(0.9 0.95)" xlink:href="#Small_White_Star"/><use width="4" height="4" transform="translate(1054.92 105.58) scale(0.9 0.95)" xlink:href="#Small_White_Star"/><use width="4" height="4" transform="translate(1125.58 112.61) scale(0.9 0.95)" xlink:href="#Small_White_Star"/><use width="4" height="4" transform="translate(1333.3 95.22) scale(0.9 0.95)" xlink:href="#Small_White_Star"/><use width="4" height="4" transform="translate(1340.11 109.97) scale(0.9 0.95)" xlink:href="#Small_White_Star"/><use width="4" height="4" transform="translate(1445.82 115.77) scale(0.9 0.95)" xlink:href="#Small_White_Star"/><use width="4" height="4" transform="translate(1565.35 91.4) scale(0.9 0.95)" xlink:href="#Small_White_Star"/><use width="4" height="4" transform="translate(1575.59 133.65) scale(0.9 0.95)" xlink:href="#Small_White_Star"/><use width="4" height="4" transform="translate(1346.01 337.65) scale(0.9 0.95)" xlink:href="#Small_White_Star"/><use width="4" height="4" transform="translate(1144.62 639.25) scale(0.9 0.95)" xlink:href="#Small_White_Star"/><use width="4" height="4" transform="translate(1112.6 713.49) scale(0.9 0.95)" xlink:href="#Small_White_Star"/><use width="4" height="4" transform="translate(1171.99 670.57) scale(0.9 0.95)" xlink:href="#Small_White_Star"/><use width="4" height="4" transform="translate(1410.73 506.57) scale(0.9 0.95)" xlink:href="#Small_White_Star"/><use width="4" height="4" transform="translate(1516.79 340.34) scale(0.9 0.95)" xlink:href="#Small_White_Star"/><use width="4" height="4" transform="translate(1574.52 273.14) scale(0.9 0.95)" xlink:href="#Small_White_Star"/><use width="4" height="4" transform="translate(1734.46 199.78) scale(0.9 0.95)" xlink:href="#Small_White_Star"/><use width="4" height="4" transform="translate(1764.16 171.88) scale(0.9 0.95)" xlink:href="#Small_White_Star"/><use width="4" height="4" transform="translate(1787.09 172.47) scale(0.9 0.95)" xlink:href="#Small_White_Star"/><use width="4" height="4" transform="translate(1735.91 210.69) scale(0.9 0.95)" xlink:href="#Small_White_Star"/><use width="4" height="4" transform="translate(1579.37 239.37) scale(0.9 0.95)" xlink:href="#Small_White_Star"/><use width="4" height="4" transform="translate(1447.93 376.39) scale(0.9 0.95)" xlink:href="#Small_White_Star"/><use width="4" height="4" transform="translate(1334.82 461.37) scale(0.9 0.95)" xlink:href="#Small_White_Star"/><use width="4" height="4" transform="translate(1236.17 545.51) scale(0.9 0.95)" xlink:href="#Small_White_Star"/><use width="4" height="4" transform="translate(1175.26 603.27) scale(0.9 0.95)" xlink:href="#Small_White_Star"/><use width="4" height="4" transform="translate(1040.87 608.85) scale(0.9 0.95)" xlink:href="#Small_White_Star"/><use width="4" height="4" transform="translate(1225.69 517.84) scale(0.9 0.95)" xlink:href="#Small_White_Star"/><use width="4" height="4" transform="translate(1564.44 312) scale(0.9 0.95)" xlink:href="#Small_White_Star"/><use width="4" height="4" transform="translate(1759.95 153.62) scale(0.9 0.95)" xlink:href="#Small_White_Star"/><use width="4" height="4" transform="translate(1834.84 113.67) scale(0.9 0.95)" xlink:href="#Small_White_Star"/><use width="4" height="4" transform="translate(1828.58 112.91) scale(0.9 0.95)" xlink:href="#Small_White_Star"/><use width="4" height="4" transform="translate(1876.11 77.15) scale(0.9 0.95)" xlink:href="#Small_White_Star"/><use width="4" height="4" transform="translate(1842.61 63.54) scale(0.9 0.95)" xlink:href="#Small_White_Star"/><use width="4" height="4" transform="translate(1790.04 65.89) scale(0.9 0.95)" xlink:href="#Small_White_Star"/><use width="4" height="4" transform="translate(1708.84 136.15) scale(0.9 0.95)" xlink:href="#Small_White_Star"/><use width="4" height="4" transform="translate(1570.14 242.98) scale(0.9 0.95)" xlink:href="#Small_White_Star"/><use width="4" height="4" transform="translate(1493.22 326.3) scale(0.9 0.95)" xlink:href="#Small_White_Star"/><use width="4" height="4" transform="translate(1442.16 368.45) scale(0.9 0.95)" xlink:href="#Small_White_Star"/><use width="4" height="4" transform="translate(1357.64 426.36) scale(0.9 0.95)" xlink:href="#Small_White_Star"/><use width="4" height="4" transform="translate(1314.68 511.63) scale(0.9 0.95)" xlink:href="#Small_White_Star"/><use width="4" height="4" transform="translate(1291.48 587.8) scale(0.9 0.95)" xlink:href="#Small_White_Star"/><use width="4" height="4" transform="translate(1267.46 590.64) scale(0.9 0.95)" xlink:href="#Small_White_Star"/><use width="4" height="4" transform="translate(1545.94 310.11) scale(0.9 0.95)" xlink:href="#Small_White_Star"/><use width="4" height="4" transform="translate(1572.23 86.61) scale(0.9 0.95)" xlink:href="#Small_White_Star"/><use width="4" height="4" transform="translate(1446.22 91.55) scale(0.9 0.95)" xlink:href="#Small_White_Star"/><use width="4" height="4" transform="translate(1439.34 101.35) scale(0.9 0.95)" xlink:href="#Small_White_Star"/><use width="4" height="4" transform="translate(1392.55 174.67) scale(0.9 0.95)" xlink:href="#Small_White_Star"/><use width="4" height="4" transform="translate(1381.35 244.67) scale(0.9 0.95)" xlink:href="#Small_White_Star"/><use width="4" height="4" transform="translate(1383.48 253.59) scale(0.9 0.95)" xlink:href="#Small_White_Star"/><use width="4" height="4" transform="translate(1169.1 295.65) scale(0.9 0.95)" xlink:href="#Small_White_Star"/><use width="4" height="4" transform="translate(1115.42 378.44) scale(0.9 0.95)" xlink:href="#Small_White_Star"/><use width="4" height="4" transform="translate(1086.06 498.22) scale(0.9 0.95)" xlink:href="#Small_White_Star"/><use width="4" height="4" transform="translate(1055.74 580.14) scale(0.9 0.95)" xlink:href="#Small_White_Star"/><use width="4" height="4" transform="translate(1192.95 524.96) scale(0.9 0.95)" xlink:href="#Small_White_Star"/><use width="4" height="4" transform="translate(1287.69 416.91) scale(0.9 0.95)" xlink:href="#Small_White_Star"/><use width="4" height="4" transform="translate(1693.69 250.46) scale(0.9 0.95)" xlink:href="#Small_White_Star"/><use width="4" height="4" transform="translate(1723.95 202.69) scale(0.9 0.95)" xlink:href="#Small_White_Star"/><use width="4" height="4" transform="translate(1767.25 192.93) scale(0.9 0.95)" xlink:href="#Small_White_Star"/><use width="4" height="4" transform="translate(1774.79 195.81) scale(0.9 0.95)" xlink:href="#Small_White_Star"/><use width="4" height="4" transform="translate(1894.79 121.65) scale(0.9 0.95)" xlink:href="#Small_White_Star"/><use width="4" height="4" transform="translate(1880.06 147.05) scale(0.9 0.95)" xlink:href="#Small_White_Star"/><use width="4" height="4" transform="translate(1859.57 262.66) scale(0.9 0.95)" xlink:href="#Small_White_Star"/><use width="4" height="4" transform="translate(1669.06 466.55) scale(0.9 0.95)" xlink:href="#Small_White_Star"/><use width="4" height="4" transform="translate(1609.84 506.82) scale(0.9 0.95)" xlink:href="#Small_White_Star"/><use width="4" height="4" transform="translate(1591.58 505.24) scale(0.9 0.95)" xlink:href="#Small_White_Star"/><use width="4" height="4" transform="translate(1563.07 499.66) scale(0.9 0.95)" xlink:href="#Small_White_Star"/><use width="4" height="4" transform="translate(1598.84 442.13) scale(0.9 0.95)" xlink:href="#Small_White_Star"/><use width="4" height="4" transform="translate(1607.25 384.48) scale(0.9 0.95)" xlink:href="#Small_White_Star"/><use width="4" height="4" transform="translate(1532.23 430.32) scale(0.9 0.95)" xlink:href="#Small_White_Star"/><use width="4" height="4" transform="translate(1442.41 540.72) scale(0.9 0.95)" xlink:href="#Small_White_Star"/><use width="4" height="4" transform="translate(1397.11 621) scale(0.9 0.95)" xlink:href="#Small_White_Star"/><use width="4" height="4" transform="translate(1321.12 656.7) scale(0.9 0.95)" xlink:href="#Small_White_Star"/><use width="4" height="4" transform="translate(1277.41 638.83) scale(0.9 0.95)" xlink:href="#Small_White_Star"/><use width="4" height="4" transform="translate(1383.24 558.15) scale(0.9 0.95)" xlink:href="#Small_White_Star"/><use width="4" height="4" transform="translate(1611.24 407.46) scale(0.9 0.95)" xlink:href="#Small_White_Star"/><use width="4" height="4" transform="translate(1694.2 328.95) scale(0.9 0.95)" xlink:href="#Small_White_Star"/><use width="4" height="4" transform="translate(1708.99 310.16) scale(0.9 0.95)" xlink:href="#Small_White_Star"/><use width="4" height="4" transform="translate(1758.25 265.55) scale(0.9 0.95)" xlink:href="#Small_White_Star"/><use width="4" height="4" transform="translate(1838.25 182.96) scale(0.9 0.95)" xlink:href="#Small_White_Star"/><use width="4" height="4" transform="translate(1784.94 129.99) scale(0.9 0.95)" xlink:href="#Small_White_Star"/><use width="4" height="4" transform="translate(1700.88 182.09) scale(0.9 0.95)" xlink:href="#Small_White_Star"/><use width="4" height="4" transform="translate(1442.92 339.83) scale(0.9 0.95)" xlink:href="#Small_White_Star"/><use width="4" height="4" transform="translate(1217.56 541.55) scale(0.9 0.95)" xlink:href="#Small_White_Star"/><use width="4" height="4" transform="translate(1009.07 589.71) scale(0.9 0.95)" xlink:href="#Small_White_Star"/><use width="4" height="4" transform="translate(824.56 601.38) scale(0.9 0.95)" xlink:href="#Small_White_Star"/><use width="4" height="4" transform="translate(798.4 622.91) scale(0.9 0.95)" xlink:href="#Small_White_Star"/><use width="4" height="4" transform="translate(834.62 684.98) scale(0.9 0.95)" xlink:href="#Small_White_Star"/><use width="4" height="4" transform="translate(838.19 780.37) scale(0.9 0.95)" xlink:href="#Small_White_Star"/><use width="4" height="4" transform="translate(1139.5 757.21) scale(0.9 0.95)" xlink:href="#Small_White_Star"/><use width="4" height="4" transform="translate(1379.56 598.45) scale(0.9 0.95)" xlink:href="#Small_White_Star"/><use width="4" height="4" transform="translate(1568.4 530.72) scale(0.9 0.95)" xlink:href="#Small_White_Star"/><use width="4" height="4" transform="translate(1757.2 486.65) scale(0.9 0.95)" xlink:href="#Small_White_Star"/><use width="4" height="4" transform="translate(1840.23 482.37) scale(0.9 0.95)" xlink:href="#Small_White_Star"/><use width="4" height="4" transform="translate(1777.41 539.35) scale(0.9 0.95)" xlink:href="#Small_White_Star"/><use width="4" height="4" transform="translate(1811.67 611.95) scale(0.9 0.95)" xlink:href="#Small_White_Star"/><use width="4" height="4" transform="translate(1859.77 637.68) scale(0.9 0.95)" xlink:href="#Small_White_Star"/><use width="4" height="4" transform="translate(1889.43 620.62) scale(0.9 0.95)" xlink:href="#Small_White_Star"/><use width="4" height="4" transform="translate(1893 576.66) scale(0.9 0.95)" xlink:href="#Small_White_Star"/><use width="4" height="4" transform="translate(1904.08 507.87) scale(0.9 0.95)" xlink:href="#Small_White_Star"/><use width="4" height="4" transform="translate(1916.41 448.08) scale(0.9 0.95)" xlink:href="#Small_White_Star"/><use width="4" height="4" transform="translate(1913.79 428.49) scale(0.9 0.95)" xlink:href="#Small_White_Star"/><use width="4" height="4" transform="translate(1791.32 421.08) scale(0.9 0.95)" xlink:href="#Small_White_Star"/><use width="4" height="4" transform="translate(1198.84 419.58) scale(0.9 0.95)" xlink:href="#Small_White_Star"/><use width="4" height="4" transform="translate(1099.39 353.62) scale(0.9 0.95)" xlink:href="#Small_White_Star"/><use width="4" height="4" transform="translate(936.07 266.47) scale(0.9 0.95)" xlink:href="#Small_White_Star"/><use width="4" height="4" transform="translate(887.19 287.7) scale(0.9 0.95)" xlink:href="#Small_White_Star"/><use width="4" height="4" transform="translate(827.94 333.68) scale(0.9 0.95)" xlink:href="#Small_White_Star"/><use width="4" height="4" transform="translate(314.78 487.47) scale(0.9 0.95)" xlink:href="#Small_White_Star"/><use width="4" height="4" transform="translate(88.33 532.66) scale(0.9 0.95)" xlink:href="#Small_White_Star"/><use width="4" height="4" transform="translate(0 524.55) scale(0.9 0.95)" xlink:href="#Small_White_Star"/><use width="4" height="4" transform="translate(135.32 450.19) scale(0.9 0.95)" xlink:href="#Small_White_Star"/><use width="4" height="4" transform="translate(317.1 255.88) scale(0.9 0.95)" xlink:href="#Small_White_Star"/><use width="4" height="4" transform="translate(534.34 68.84) scale(0.9 0.95)" xlink:href="#Small_White_Star"/><use width="4" height="4" transform="translate(595.32 65.02) scale(0.9 0.95)" xlink:href="#Small_White_Star"/><use width="4" height="4" transform="translate(587.4 56.77) scale(0.9 0.95)" xlink:href="#Small_White_Star"/><path class="cls-3" d="M0,689.23c136-39,126-28,211-31s77-23,117-35,123-27,163-5,61,30,109,49,265,72,291,68,43-16,145-28,303-95,325-95,79-103,135-99,131,25,162,42,120,89,172,119,86,56,90,65v344c-3-3-1078,0-1078,0H0Z"/><rect class="cls-4" y="866.23" width="291" height="217"/><rect class="cls-4" x="637" y="915.23" width="355" height="168"/><rect class="cls-4" x="286" y="797.23" width="423" height="286"/><rect class="cls-4" x="960" y="555.23" width="291" height="528"/><rect class="cls-4" x="1261" y="788.23" width="235" height="295"/><rect class="cls-4" x="1752" y="885.23" width="168" height="198"/><rect class="cls-4" x="1465" y="674.23" width="331" height="409"/><polygon class="cls-5" points="1207 1082.23 1149 1083.23 1901 3.23 1920 3.23 1920 400.23 1207 1082.23"/><polygon class="cls-6" points="1185 1082.23 1212.59 1081.81 1596 3.23 1365 3.23 1185 1082.23"/><polygon class="cls-7" points="1321 1082.23 1364 1077.23 930 3.23 424 3.23 1321 1082.23"/><path class="cls-8" d="M0,1043.23c192-55,200-40,210-36s35,21.92,57,19,57-19,69-25,69-23,79-20,43,31,63,8,39-28,59-16,38-8,46,14,51,43,60,42,11,13,73,8,127-72,160-75,155,21,190,25,132,54,162,51,42-19,95-27-19-13,81-13,160,25,197,27,189,2,209,16,81-22,85-22,18,7,25,10v60H0Z"/><use width="4" height="4" transform="translate(71.9 280.38) scale(1 0.97)" xlink:href="#Small_White_Star"/><use width="4" height="4" transform="translate(106.48 207) scale(1 0.97)" xlink:href="#Small_White_Star"/><use width="4" height="4" transform="translate(161.39 168.32) scale(1 0.97)" xlink:href="#Small_White_Star"/><use width="4" height="4" transform="translate(188.42 144.53) scale(1 0.97)" xlink:href="#Small_White_Star"/><use width="4" height="4" transform="translate(211 133.64) scale(1 0.97)" xlink:href="#Small_White_Star"/><use width="4" height="4" transform="translate(262.47 131.78) scale(1 0.97)" xlink:href="#Small_White_Star"/><use width="4" height="4" transform="translate(270.91 179.06) scale(1 0.97)" xlink:href="#Small_White_Star"/><use width="4" height="4" transform="translate(203.01 239.13) scale(1 0.97)" xlink:href="#Small_White_Star"/><use width="4" height="4" transform="translate(151.54 256.88) scale(1 0.97)" xlink:href="#Small_White_Star"/><use width="4" height="4" transform="translate(131.87 222.98) scale(1 0.97)" xlink:href="#Small_White_Star"/><use width="4" height="4" transform="translate(112.26 147.12) scale(1 0.97)" xlink:href="#Small_White_Star"/><use width="4" height="4" transform="translate(106.63 97.35) scale(1 0.97)" xlink:href="#Small_White_Star"/><use width="4" height="4" transform="translate(129.47 86.21) scale(1 0.97)" xlink:href="#Small_White_Star"/><use width="4" height="4" transform="translate(183.38 83.54) scale(1 0.97)" xlink:href="#Small_White_Star"/><use width="4" height="4" transform="translate(253.66 78.12) scale(1 0.97)" xlink:href="#Small_White_Star"/><use width="4" height="4" transform="translate(270.84 102.36) scale(1 0.97)" xlink:href="#Small_White_Star"/><use width="4" height="4" transform="translate(232.46 192.24) scale(1 0.97)" xlink:href="#Small_White_Star"/><use width="4" height="4" transform="translate(139.91 276.11) scale(1 0.97)" xlink:href="#Small_White_Star"/><use width="4" height="4" transform="translate(115.56 317.36) scale(1 0.97)" xlink:href="#Small_White_Star"/><use width="4" height="4" transform="translate(172.35 376.15) scale(1 0.97)" xlink:href="#Small_White_Star"/><use width="4" height="4" transform="translate(272.08 396.13) scale(1 0.97)" xlink:href="#Small_White_Star"/><use width="4" height="4" transform="translate(445.67 282.24) scale(1 0.97)" xlink:href="#Small_White_Star"/><use width="4" height="4" transform="translate(504.78 264.03) scale(1 0.97)" xlink:href="#Small_White_Star"/><use width="4" height="4" transform="translate(472.8 373.18) scale(1 0.97)" xlink:href="#Small_White_Star"/><use width="4" height="4" transform="translate(408.9 440.42) scale(1 0.97)" xlink:href="#Small_White_Star"/><use width="4" height="4" transform="translate(353.13 481.8) scale(1 0.97)" xlink:href="#Small_White_Star"/><use width="4" height="4" transform="translate(325.8 500.49) scale(1 0.97)" xlink:href="#Small_White_Star"/><use width="4" height="4" transform="translate(257.15 509.89) scale(1 0.97)" xlink:href="#Small_White_Star"/><use width="4" height="4" transform="translate(200.21 520.74) scale(1 0.97)" xlink:href="#Small_White_Star"/><use width="4" height="4" transform="translate(205.41 516.85) scale(1 0.97)" xlink:href="#Small_White_Star"/><use width="4" height="4" transform="translate(219.86 529.55) scale(1 0.97)" xlink:href="#Small_White_Star"/><use width="4" height="4" transform="translate(222.74 544.59) scale(1 0.97)" xlink:href="#Small_White_Star"/><use width="4" height="4" transform="translate(216.29 543.04) scale(1 0.97)" xlink:href="#Small_White_Star"/><use width="4" height="4" transform="translate(200.04 551.49) scale(1 0.97)" xlink:href="#Small_White_Star"/><use width="4" height="4" transform="translate(181.19 566.74) scale(1 0.97)" xlink:href="#Small_White_Star"/><use width="4" height="4" transform="translate(158.09 607.58) scale(1 0.97)" xlink:href="#Small_White_Star"/><use width="4" height="4" transform="translate(150.42 644.35) scale(1 0.97)" xlink:href="#Small_White_Star"/><use width="4" height="4" transform="translate(240.11 636.6) scale(1 0.97)" xlink:href="#Small_White_Star"/><use width="4" height="4" transform="translate(352.91 568.59) scale(1 0.97)" xlink:href="#Small_White_Star"/><use width="4" height="4" transform="translate(475.57 526.49) scale(1 0.97)" xlink:href="#Small_White_Star"/><use width="4" height="4" transform="translate(1113.49) scale(1 0.97)" xlink:href="#Small_White_Star"/><use width="4" height="4" transform="translate(1193.28 33.97) scale(1 0.97)" xlink:href="#Small_White_Star"/><use width="4" height="4" transform="translate(1310.11 119.77) scale(1 0.97)" xlink:href="#Small_White_Star"/><use width="4" height="4" transform="translate(1373.43 186.53) scale(1 0.97)" xlink:href="#Small_White_Star"/><use width="4" height="4" transform="translate(1383.43 196.24) scale(1 0.97)" xlink:href="#Small_White_Star"/><use width="4" height="4" transform="translate(1328.77 252.69) scale(1 0.97)" xlink:href="#Small_White_Star"/><use width="4" height="4" transform="translate(1240.53 260.26) scale(1 0.97)" xlink:href="#Small_White_Star"/><use width="4" height="4" transform="translate(1078.78 76.76) scale(1 0.97)" xlink:href="#Small_White_Star"/><use width="4" height="4" transform="translate(1041.44 20.72) scale(1 0.97)" xlink:href="#Small_White_Star"/><use width="4" height="4" transform="translate(1041.88 28.41) scale(1 0.97)" xlink:href="#Small_White_Star"/><use width="4" height="4" transform="translate(1013.9 33.72) scale(1 0.97)" xlink:href="#Small_White_Star"/><use width="4" height="4" transform="translate(996.21 41.58) scale(1 0.97)" xlink:href="#Small_White_Star"/><use width="4" height="4" transform="translate(997.06 57.23) scale(1 0.97)" xlink:href="#Small_White_Star"/><use width="4" height="4" transform="translate(1206.42 89.14) scale(1 0.97)" xlink:href="#Small_White_Star"/><use width="4" height="4" transform="translate(1408.86 73.01) scale(1 0.97)" xlink:href="#Small_White_Star"/><use width="4" height="4" transform="translate(1538.81 42.17) scale(1 0.97)" xlink:href="#Small_White_Star"/><use width="4" height="4" transform="translate(1602.39 42.16) scale(1 0.97)" xlink:href="#Small_White_Star"/><use width="4" height="4" transform="translate(1627.62 41.93) scale(1 0.97)" xlink:href="#Small_White_Star"/><use width="4" height="4" transform="translate(1652.06 61) scale(1 0.97)" xlink:href="#Small_White_Star"/><use width="4" height="4" transform="matrix(0, -1.02, 0.69, 0, 106.39, 368.1)" xlink:href="#Small_White_Star"/><use width="4" height="4" transform="matrix(0, -1.02, 0.69, 0, 69.96, 401.35)" xlink:href="#Small_White_Star"/><use width="4" height="4" transform="matrix(0, -1.02, 0.69, 0, 45.39, 447.63)" xlink:href="#Small_White_Star"/><use width="4" height="4" transform="matrix(0, -1.02, 0.69, 0, 18.19, 490.45)" xlink:href="#Small_White_Star"/><use width="4" height="4" transform="matrix(0, -1.02, 0.69, 0, 6.53, 511.37)" xlink:href="#Small_White_Star"/><use width="4" height="4" transform="matrix(0, -1.02, 0.69, 0, 0, 495.5)" xlink:href="#Small_White_Star"/><use width="4" height="4" transform="matrix(0, -1.02, 0.69, 0, 3.94, 398.06)" xlink:href="#Small_White_Star"/><use width="4" height="4" transform="matrix(0, -1.02, 0.69, 0, 28.35, 360.17)" xlink:href="#Small_White_Star"/><use width="4" height="4" transform="matrix(0, -1.02, 0.69, 0, 72.78, 292.26)" xlink:href="#Small_White_Star"/><use width="4" height="4" transform="matrix(0, -1.02, 0.69, 0, 80.6, 266.82)" xlink:href="#Small_White_Star"/><use width="4" height="4" transform="matrix(0, -1.02, 0.69, 0, 65.7, 210.1)" xlink:href="#Small_White_Star"/><use width="4" height="4" transform="matrix(0, -1.02, 0.69, 0, 35.59, 185.49)" xlink:href="#Small_White_Star"/><use width="4" height="4" transform="matrix(0, -1.02, 0.69, 0, 35.57, 141.72)" xlink:href="#Small_White_Star"/><use width="4" height="4" transform="matrix(0, -1.02, 0.69, 0, 72.35, 93.63)" xlink:href="#Small_White_Star"/><use width="4" height="4" transform="matrix(0, -1.02, 0.69, 0, 132.33, 58.22)" xlink:href="#Small_White_Star"/><use width="4" height="4" transform="matrix(0, -1.02, 0.69, 0, 140.17, 58.31)" xlink:href="#Small_White_Star"/><use width="4" height="4" transform="matrix(0, -1.02, 0.69, 0, 87.44, 71.26)" xlink:href="#Small_White_Star"/><use width="4" height="4" transform="matrix(0, -1.02, 0.69, 0, 26.09, 221.49)" xlink:href="#Small_White_Star"/><use width="4" height="4" transform="matrix(0, -1.02, 0.69, 0, 24.29, 339.53)" xlink:href="#Small_White_Star"/><use width="4" height="4" transform="matrix(0, -1.02, 0.69, 0, 56.02, 392.44)" xlink:href="#Small_White_Star"/><use width="4" height="4" transform="matrix(0, -1.02, 0.69, 0, 189.97, 395.31)" xlink:href="#Small_White_Star"/><use width="4" height="4" transform="matrix(0, -1.02, 0.69, 0, 246.49, 354.13)" xlink:href="#Small_White_Star"/><use width="4" height="4" transform="matrix(0, -1.02, 0.69, 0, 301.14, 378.58)" xlink:href="#Small_White_Star"/><use width="4" height="4" transform="matrix(0, -1.02, 0.69, 0, 344.98, 392.02)" xlink:href="#Small_White_Star"/><use width="4" height="4" transform="matrix(0, -1.02, 0.69, 0, 381.64, 410.98)" xlink:href="#Small_White_Star"/><use width="4" height="4" transform="matrix(0, -1.02, 0.69, 0, 419.87, 454.32)" xlink:href="#Small_White_Star"/><use width="4" height="4" transform="matrix(0, -1.02, 0.69, 0, 447.47, 489.65)" xlink:href="#Small_White_Star"/><use width="4" height="4" transform="matrix(0, -1.02, 0.69, 0, 454.65, 541.76)" xlink:href="#Small_White_Star"/></g></g></svg>